<svg width="209" height="38" viewBox="0 0 209 38" fill="none" xmlns="http://www.w3.org/2000/svg">
<g clip-path="url(#clip0)">
<path fill-rule="evenodd" clip-rule="evenodd" d="M86.6008 10.8789C83.7328 10.8454 80.6464 10.9403 79.2852 11.0129V26.7783C79.9182 26.823 84.0633 26.8621 86.668 26.8341C93.5914 26.7616 95.6695 24.7909 95.6919 18.6109C95.7143 12.5928 92.8744 10.9403 86.6008 10.8789ZM68.2839 27.2138C72.4178 27.2138 74.4512 26.1698 75.521 24.7406C76.1988 23.8418 76.5293 22.837 76.5293 21.3799V11.0129H71.9193V21.0282C71.9193 21.6255 71.8857 22.1112 71.7905 22.5522C71.4488 24.1321 70.2893 24.6848 68.2839 24.6848C66.2842 24.6848 65.1023 24.1321 64.7662 22.5522C64.6766 22.1224 64.6542 21.6255 64.6542 21.0282C64.6542 21.0282 64.6486 11.8168 64.6486 11.0129H60.0442V21.3799C60.0442 22.6974 60.3187 23.8698 60.9796 24.6737C62.2344 26.1977 64.1613 27.2138 68.2839 27.2138ZM86.9312 24.2773C85.5925 24.3331 83.856 24.2605 83.856 24.2605V13.4414C84.8475 13.4079 85.7213 13.3744 86.7968 13.3967C89.7152 13.4525 91.0315 14.1894 91.0315 18.6109C91.0315 23.2892 90.1857 24.1545 86.9312 24.2773ZM119.179 11.0185H102.811V14.2397H108.676V26.7783H113.23V14.2397H119.179V11.0185ZM139.081 26.7783L133.524 20.6653C134.717 20.4811 135.742 20.1126 136.381 19.5209C137.16 18.8119 137.664 17.8237 137.664 15.8977C137.664 13.8935 137.092 12.6542 136.129 11.9787C134.835 11.0799 133.02 10.8845 129.127 10.8677C125.531 10.851 122.456 10.985 121.711 11.0185V26.7783H126.276V13.4637C127.178 13.4079 128.573 13.3688 129.144 13.3688C130.936 13.3688 131.771 13.5251 132.398 14.0275C132.841 14.3737 133.149 14.8761 133.16 15.9256C133.16 16.7798 132.992 17.405 132.538 17.8628C132.242 18.1699 131.648 18.4155 130.864 18.4825C130.32 18.5216 129.659 18.516 129.301 18.5272C128.438 18.5606 127.956 18.6276 127.76 18.9793C127.402 19.6214 127.9 20.3694 128.668 21.2682C129.542 22.2787 132.398 25.5501 133.468 26.7783H139.081ZM148.2 27.2975C152.323 27.2975 154.356 26.248 155.426 24.8244C156.115 23.9256 156.44 22.9207 156.44 21.4636V11.1748H151.835V21.1063C151.835 21.7093 151.796 22.1894 151.695 22.636C151.359 24.2103 150.194 24.7686 148.2 24.7686C146.2 24.7686 145.007 24.2103 144.677 22.636C144.582 22.2061 144.559 21.7093 144.559 21.1063C144.559 21.1063 144.554 11.9005 144.554 11.1748H139.955V21.4636C139.955 22.7811 140.224 23.9591 140.89 24.7574C142.139 26.2759 144.066 27.2975 148.2 27.2975ZM168.091 13.5921C170.6 13.4972 173.872 13.7037 173.872 13.7037V11.0631C173.872 11.0631 171.177 10.8175 167.94 10.8175C163.739 10.8175 161.739 11.56 160.473 12.7938C159.246 13.9996 158.848 15.881 158.848 18.8844C158.848 21.8879 159.235 23.7693 160.473 24.9863C161.632 26.1196 163.935 26.9067 167.984 26.9067C171.284 26.9067 173.888 26.7392 173.888 26.7392V24.0428C173.888 24.0428 170.673 24.2382 168.091 24.1433C164.747 24.0205 163.526 23.4455 163.509 18.89C163.526 14.3011 164.747 13.7261 168.091 13.5921ZM185.64 18.2871L192.474 11.0352H187.73L180.985 18.1978V11.0352H176.403V26.7783H180.985V19.3813L186.99 26.7783H192.637L185.64 18.2871ZM207.391 19.6995C206.993 19.4148 206.478 19.1022 205.671 18.7225C204.674 18.2648 203.218 17.5837 199.717 16.0875C198.703 15.6521 197.941 15.239 197.964 14.6081C197.98 13.9494 198.58 13.7428 200.109 13.6814C201.196 13.6367 204.848 13.6367 208.119 13.8098V11.1078C203.139 10.7282 199.79 10.8901 198.434 10.9961C195.252 11.2474 193.667 12.509 193.37 14.5467C193.079 16.5565 194.009 17.9186 197.235 19.3422C199.554 20.3583 202.456 21.6758 202.456 21.6758C203.531 22.1503 204.058 22.4127 204.024 23.0714C204.002 23.518 203.789 23.8083 202.999 23.9814C202.4 24.1042 201.481 24.1545 199.896 24.1377C197.219 24.1098 194.664 23.9982 193.712 23.9647V26.7783C194.457 26.8174 197.23 27.0016 199.986 27.0351C204.725 27.0909 206.069 26.5718 207.01 26.0358C208.091 25.4273 208.718 24.5062 208.836 23.0882C208.942 21.7595 208.556 20.5202 207.391 19.6995Z" fill="white"/>
<path fill-rule="evenodd" clip-rule="evenodd" d="M25.7345 1.22308C11.9604 1.22308 1.95621 8.70386 1.95621 18.9983C1.95621 29.2927 11.9604 36.7735 25.7345 36.7735C39.5085 36.7735 49.5071 29.2927 49.5071 18.9983C49.5071 8.70386 39.5085 1.22308 25.7345 1.22308Z" fill="#E62129"/>
<path fill-rule="evenodd" clip-rule="evenodd" d="M25.7352 0.402039C30.7765 0.402039 35.9747 1.37901 40.4559 3.74606C44.22 5.73349 47.4409 8.70347 49.1717 12.6392C50.0568 14.6546 50.4937 16.7983 50.4937 18.9979C50.4937 21.1975 50.0568 23.3412 49.1717 25.3566C47.4409 29.2923 44.22 32.2623 40.4559 34.2553C35.9747 36.6224 30.7765 37.5994 25.7352 37.5994C20.6883 37.5994 15.4901 36.6168 11.0089 34.2498C7.23912 32.2623 4.01827 29.2868 2.29302 25.351C1.40798 23.3356 0.971069 21.1919 0.971069 18.9979C0.971069 16.8039 1.40798 14.6602 2.29302 12.6448C4.01827 8.70905 7.23912 5.73349 11.0089 3.74606C15.4901 1.37901 20.6883 0.402039 25.7352 0.402039ZM25.7352 34.7689C30.1099 34.7689 34.6247 33.926 38.5121 31.8604C41.7162 30.1577 44.4665 27.6175 45.9173 24.2512C46.6399 22.5876 46.9928 20.8123 46.9928 18.9979C46.9928 17.1891 46.6399 15.425 45.9173 13.7614C44.4665 10.395 41.705 7.86048 38.5009 6.15777C34.6191 4.10335 30.1043 3.25478 25.7352 3.25478C21.366 3.25478 16.8456 4.10335 12.9638 6.15777C9.75978 7.8549 7.00386 10.3838 5.54747 13.7502C4.82488 15.4138 4.46639 17.1835 4.46639 18.9979C4.46639 20.8067 4.81928 22.5764 5.53627 24.24C6.98705 27.612 9.74298 30.1521 12.947 31.8548C16.8344 33.9204 21.3604 34.7689 25.7352 34.7689Z" fill="url(#paint0_linear)"/>
<path fill-rule="evenodd" clip-rule="evenodd" d="M25.7349 35.1209C13.2156 35.1209 4.11323 28.3156 4.11323 18.9982C4.11323 9.68068 13.2324 2.90891 25.7349 2.90891C38.2094 2.90891 47.3454 9.68068 47.3454 18.9982C47.3454 28.3156 38.2542 35.1209 25.7349 35.1209ZM25.7349 0.748413C11.5912 0.748413 1.3237 8.43016 1.3237 18.9982C1.3237 29.5717 11.5912 37.2479 25.7349 37.2479C39.8786 37.2479 50.1405 29.5717 50.1405 18.9982C50.1405 8.43016 39.8786 0.748413 25.7349 0.748413Z" fill="url(#paint1_linear)"/>
<path fill-rule="evenodd" clip-rule="evenodd" d="M27.6962 11.1806H28.1723C30.2225 11.1806 32.267 11.175 34.3171 11.2029C35.0173 11.2141 35.7175 11.2197 36.4121 11.2252C37.3419 11.2364 38.2662 11.2364 39.1904 11.2867C39.6665 11.3146 40.1371 11.3481 40.6076 11.4095C41.0893 11.4765 41.6271 11.5714 42.0752 11.7612C43.8789 12.5148 44.6463 14.0333 45.1336 15.8254C45.3857 16.7633 45.4977 17.7235 45.4977 18.6893C45.4977 19.9342 45.3072 21.2294 44.8815 22.4018C44.3662 23.8198 43.4475 25.3997 41.9968 26.0138C41.1117 26.3934 40.1819 26.5218 39.2296 26.5944C37.5436 26.7228 35.8463 26.7172 34.1603 26.7395C31.1355 26.7786 28.1107 26.7842 25.0859 26.7842L24.3633 26.7786L27.6962 11.1806ZM17.4455 23.4625L19.8261 12.7661C19.8877 12.4702 19.9494 12.152 20.0446 11.8673C20.1062 11.6719 20.1958 11.4821 20.3695 11.3592C20.4031 11.3369 20.4423 11.3146 20.4815 11.2922C20.6439 11.2085 20.8232 11.175 21.008 11.1638C21.2545 11.1471 21.5066 11.1471 21.753 11.1415H22.4756C22.9966 11.1415 23.5119 11.1415 24.0328 11.1359H26.968L23.6127 26.8567H23.3831C21.2489 26.8567 19.1147 26.8344 16.975 26.8065C16.0451 26.7953 15.1153 26.7786 14.1854 26.7507C13.5245 26.7339 12.8523 26.706 12.1913 26.6502C11.3063 26.572 10.4381 26.4436 9.61464 26.0863C8.02942 25.3997 7.10518 23.8868 6.56744 22.3124C6.15853 21.1289 5.96808 19.8728 5.96808 18.6223C5.96808 16.5009 6.52823 14.3236 7.67653 12.526C7.9566 12.0906 8.28709 11.6272 8.79122 11.4318C9.00408 11.3481 9.25614 11.3202 9.4802 11.3034C9.82189 11.2755 10.1748 11.2755 10.5165 11.2699L12.3482 11.2308C12.6898 11.2252 13.0483 11.2252 13.39 11.2476C13.7093 11.2755 14.0342 11.4151 14.1182 11.75C14.1294 11.8003 14.1406 11.8505 14.1406 11.9008C14.1406 12.1129 14.0734 12.3195 14.0062 12.5148H14.0006V12.5204C13.9278 12.6991 13.8606 12.8777 13.7877 13.0564V13.0675C12.9867 14.921 12.3538 17.0256 12.3538 19.0577C12.3538 19.3201 12.365 19.5825 12.3874 19.8449C12.4714 20.8944 12.7123 22.145 13.5637 22.8595C14.163 23.3564 15.2049 23.4346 15.9555 23.4569C16.4484 23.4736 16.947 23.4736 17.4455 23.4625ZM31.8973 23.4569L33.7794 23.4513C34.8325 23.4457 36.4961 23.5016 37.4484 23.0661C38.2382 22.7088 38.5855 21.8491 38.8151 21.0731C39.2408 19.6383 39.3305 18.1868 39.112 16.7074C39.0112 16.0096 38.8431 15.2504 38.2214 14.8205C37.5268 14.3348 36.2328 14.385 35.4094 14.385H33.7402C33.1296 17.4109 32.5247 20.4367 31.8973 23.4569Z" fill="url(#paint2_linear)"/>
<path fill-rule="evenodd" clip-rule="evenodd" d="M27.8629 11.3878L24.6196 26.5726H25.0902C28.1094 26.5782 31.1342 26.5671 34.1534 26.528C35.8226 26.5057 37.5478 26.5168 39.2115 26.3884C40.1413 26.3158 41.0488 26.193 41.917 25.8246C43.3062 25.2328 44.1912 23.6864 44.6841 22.3354C45.0986 21.1854 45.2891 19.9069 45.2891 18.6899C45.2891 17.7409 45.1771 16.7974 44.9306 15.8818C44.4601 14.1456 43.7263 12.6774 41.9954 11.9516C41.2392 11.639 39.9901 11.5385 39.1779 11.4939C38.2592 11.4436 37.335 11.4436 36.4107 11.438C35.7106 11.4325 35.0104 11.4269 34.3102 11.4157C32.2657 11.3878 30.2211 11.3934 28.171 11.3878H27.8629ZM9.69731 25.8971C11.0417 26.4777 12.6213 26.5392 16.9792 26.595C19.0294 26.6229 21.1859 26.6396 23.3817 26.6508H23.4433L26.709 11.3431H25.5831C24.3004 11.3431 21.7573 11.3543 21.7573 11.3543C21.0515 11.3655 20.7434 11.3487 20.4858 11.533C20.2729 11.6837 20.2001 12.0242 20.0264 12.8114L17.6122 23.6697C17.6122 23.6697 16.716 23.692 15.9486 23.6697C14.9963 23.6417 14.0272 23.5189 13.4279 23.0221C12.7669 22.4694 12.3132 21.5315 12.1788 19.8679C12.1564 19.5999 12.1452 19.3319 12.1452 19.0584C12.1452 17.0933 12.7333 14.983 13.5903 12.9844C13.5903 12.9844 13.7024 12.6997 13.8088 12.4429C13.8536 12.3201 13.9264 12.1024 13.9264 11.9014C13.9264 11.6837 13.7696 11.4883 13.3719 11.4604C12.9854 11.4325 12.3468 11.4436 12.3468 11.4436L10.5207 11.4771C9.6749 11.4939 9.18197 11.505 8.86829 11.6279C8.50419 11.7674 8.22412 12.0577 7.84882 12.6383C6.74533 14.3689 6.17398 16.5015 6.17398 18.6229C6.17398 19.8623 6.36443 21.0961 6.76214 22.2461C7.42871 24.1888 8.44818 25.3556 9.69731 25.8971ZM31.6439 23.6697C32.2937 20.5043 32.9322 17.3389 33.5652 14.1736H35.4081C36.2819 14.1791 37.5871 14.1289 38.3433 14.6481C39.0154 15.117 39.2059 15.9042 39.3179 16.6746C39.542 18.1931 39.4467 19.6613 39.0098 21.1351C38.7634 21.9781 38.3881 22.8658 37.5366 23.2565C36.5508 23.7087 34.8423 23.6473 33.7781 23.6585L31.6439 23.6697Z" fill="url(#paint3_linear)"/>
</g>
<defs>
<linearGradient id="paint0_linear" x1="26.9408" y1="0.11174" x2="24.5378" y2="37.8857" gradientUnits="userSpaceOnUse">
<stop stop-color="#585959"/>
<stop offset="0.502" stop-color="#FEFEFE"/>
<stop offset="1" stop-color="#62615F"/>
</linearGradient>
<linearGradient id="paint1_linear" x1="26.9185" y1="0.460348" x2="24.5597" y2="37.5375" gradientUnits="userSpaceOnUse">
<stop stop-color="#D9D9DA"/>
<stop offset="0.502" stop-color="#FEFEFE"/>
<stop offset="1" stop-color="#D9D9DA"/>
</linearGradient>
<linearGradient id="paint2_linear" x1="25.3839" y1="10.6776" x2="26.0748" y2="27.3158" gradientUnits="userSpaceOnUse">
<stop stop-color="#566892"/>
<stop offset="0.49" stop-color="#FEFEFE"/>
<stop offset="1" stop-color="#474443"/>
</linearGradient>
<linearGradient id="paint3_linear" x1="25.3913" y1="10.8859" x2="26.0649" y2="27.1088" gradientUnits="userSpaceOnUse">
<stop stop-color="#C9CACA"/>
<stop offset="0.49" stop-color="#FEFEFE"/>
<stop offset="1" stop-color="#C9CACA"/>
</linearGradient>
<clipPath id="clip0">
<rect width="207.971" height="38.0001" fill="white" transform="translate(0.971069)"/>
</clipPath>
</defs>
</svg>
